<?xml version="1.0" encoding="UTF-8"?>
<svg id="Layer_2" data-name="Layer 2" xmlns="http://www.w3.org/2000/svg" viewBox="0 0 164.76 56.5">
  <defs>
    <style>
      .cls-1, .cls-2 {
        fill: #231f20;
      }

      .cls-2 {
        stroke: #231f20;
        stroke-miterlimit: 10;
      }
    </style>
  </defs>
  <g id="Layer_1-2" data-name="Layer 1">
    <path class="cls-2" d="M99.29,54.78h-5.31c-1.1,0-1.99-.89-1.99-1.99v-1.91c0-1.1.89-1.99,1.99-1.99h5.26"/>
    <g>
      <path class="cls-1" d="M13.56,44.17V7.14H0V0h35.16v7.14h-14.08v37.04h-7.52Z"/>
      <path class="cls-1" d="M38.08,44.17V0h7.52v15.96c1.56-1.3,3.28-2.31,5.16-3.05,1.88-.73,3.84-1.1,5.87-1.1,2.21,0,3.97.37,5.29,1.1,1.32.74,2.3,1.74,2.95,3.02.65,1.28,1.07,2.7,1.26,4.28.19,1.58.29,3.21.29,4.9v19.07h-7.52v-19.72c0-2.08-.44-3.48-1.33-4.22-.89-.74-1.98-1.1-3.28-1.1-1.56,0-3.14.4-4.74,1.2-1.6.8-2.92,1.81-3.96,3.02v20.82h-7.52Z"/>
      <path class="cls-1" d="M74.45,54.35l6.16-13.84c.18-.4.18-.85,0-1.24l-10.96-24.6c-.45-1.01.29-2.15,1.4-2.15h4.44c.6,0,1.15.36,1.4.91l6.51,14.65c.54,1.21,2.25,1.21,2.79,0l6.56-14.65c.25-.55.79-.9,1.39-.9h4.44c1.11,0,1.85,1.14,1.39,2.15l-18.29,40.92c-.25.55-.79.9-1.39.9h-4.44c-1.11,0-1.85-1.14-1.4-2.15Z"/>
      <path class="cls-1" d="M121.36,11.81c2.21,0,3.97.37,5.29,1.1,1.32.74,2.3,1.74,2.95,3.02.65,1.28,1.07,2.7,1.26,4.28.19,1.58.29,3.21.29,4.9v19.07h-7.52v-19.72c0-2.08-.44-3.48-1.33-4.22-.89-.74-1.98-1.1-3.28-1.1-1.56,0-3.14.4-4.74,1.2-1.6.8-2.92,1.81-3.96,3.02v20.82h-7.52V12.52h5.64l1.1,4.09c1.64-1.47,3.47-2.64,5.48-3.5,2.01-.86,4.12-1.3,6.32-1.3Z"/>
      <path class="cls-1" d="M136.99,0h7.39v25.04l11.48-12.52h8.69l-13.62,15.11,13.82,16.54h-8.89l-11.48-13.56v13.56h-7.39V0Z"/>
    </g>
    <path class="cls-2" d="M102.47,48.87h49.46c.31,0,.61.12.88.35l7.35,2.35c.12.1.12.37,0,.48l-7.35,2.35c-.27.23-.57.35-.88.35h-49.43"/>
  </g>
</svg>